<?xml version="1.0" encoding="UTF-8"?>
<!-- Title: 1. C:\Users\batagelj\Documents\papers\2018\moskva\december\nets\HSEexample1.net (6) -->
<!-- Creator: Pajek 5.05: http://mrvar.fdv.uni-lj.si/pajek -->
<!-- CreationDate: 12-04-2018, 19:18:42 -->
<svg xml:space="preserve" viewBox="0 0 691 670" xmlns="http://www.w3.org/2000/svg" xmlns:xlink="http://www.w3.org/1999/xlink" xmlns:inkscape="http://www.inkscape.org/namespaces/inkscape">
<title>1. C:\Users\batagelj\Documents\papers\2018\moskva\december\nets\HSEexample1.net (6)</title>
<g inkscape:groupmode="layer" id="PajekSig" inkscape:label="PajekSignature">
<g transform="translate(3 652)">
<g transform="scale(0.1)">
<g transform="matrix(1 0 0 -1 0 96)">
<path d="M   7.67  49.98 L  31.76  72.76 L  46.91  78.63
         L  57.23  80.49 M  72.86  65.23 L  65.73  83.25
         L  57.06  75.49 L  56.75  68.65 M  76.27  68.03
         L  75.65  84.50 L  93.92  91.02 L 107.24  74.87
         M  80.29  67.72 L  89.28  84.81 L 104.77  81.70
         L 116.23  73.31 L 121.18  59.33 M  56.75  81.08
         L  71.31  64.30"
         style="fill:none; stroke:saddlebrown; stroke-width:5;"/>
<path d="M  86.18  70.21 L  91.45  73.00 L  95.78  69.58
         M  91.14  60.88 L  96.09  62.75 L  98.26  59.33"
         style="fill:none; stroke:saddlebrown; stroke-width:1.5;"/>
<path d="M  81.07  49.08 L  87.81  49.08 L  93.30  54.38
         L  93.30  60.88 L  93.30  67.39 L  87.81  72.69
         L  81.07  72.69 L  74.33  72.69 L  68.83  67.39
         L  68.83  60.88 L  68.83  54.38 L  74.33  49.08
         L  81.07  49.08 z"
         style="fill:maroon; stroke:saddlebrown; stroke-width:1;"/>
<path d="M  54.63  37.53 L  68.53  43.56 L  75.39  55.85
         L  69.90  65.35 L  64.41  72.86 L  48.60  74.06
         L  34.71  68.04 L  20.81  55.02 L  15.95  40.72
         L  17.44  33.22 L  24.92  28.72 L  40.73  30.51
         L  54.63  37.53 z"
         style="fill:maroon; stroke:saddlebrown; stroke-width:1;" />
<path d="M  77.82  50.63 L 103.84  59.33 L 131.10  43.80
         L 139.46  27.95 L 139.15  15.83 M  35.99   5.27
         L  47.15  32.92 L  61.71  50.01 L  70.07  46.90
         L  82.77  45.04 L  83.39  27.02 L  65.42  12.11
         M  68.52  50.63 L  91.14  49.39 L 103.53  43.17
         L 117.16  22.67 L 115.30   8.38"
         style="fill:none; stroke:saddlebrown; stroke-width:5;"/>
<path d="M  41.57  54.98 L  60.16  64.61 M  52.41  66.17
         L  57.99  57.47"
         style="fill:none; stroke:white; stroke-width:5;"/>
</g>
</g>
<animateMotion dur="20s" path="M3 0 L673 0" begin="120s" fill="freeze"/>
</g>
<g transform="translate(3 652)">
<g transform="scale(0.1)">
<text x="5" y="140" style="font-family:Brush Script MT;font-size:75px;fill:green;">Pajek</text>
</g>
<animateMotion dur="0.1s" path="M3 0 L673 0" begin="120s" fill="freeze"/>
</g>
</g>      <!-- Layer Signature -->

<g inkscape:groupmode="layer" id="PajekNet" inkscape:label="PajekNetwork">

<!-- Arc:     1    4 -->
<g transform="translate(353.26 442.79)">
<g transform="rotate(310.62)">
<path d="M 0 0 L -4.00 10.00 L 20.00 0 L -4.00 -10.00 z" style="fill:rgb(255,0,0)"/>
</g></g>
<line x1="228.14" y1="588.67" x2="353.26" y2="442.79" style="stroke-width:3.00;stroke:rgb(255,0,0)"/>
<!-- Arc:     2    6 -->
<g transform="translate(326.39 91.83)">
<g transform="rotate(181.11)">
<path d="M 0 0 L -4.00 10.00 L 20.00 0 L -4.00 -10.00 z" style="fill:rgb(255,0,0)"/>
</g></g>
<line x1="526.48" y1="95.71" x2="326.39" y2="91.83" style="stroke-width:3.00;stroke:rgb(255,0,0)"/>
<!-- Arc:     3    2 -->
<g transform="translate(491.82 135.91)">
<g transform="rotate(310.42)">
<path d="M 0 0 L -4.00 10.00 L 20.00 0 L -4.00 -10.00 z" style="fill:rgb(255,0,0)"/>
</g></g>
<line x1="382.87" y1="263.84" x2="491.82" y2="135.91" style="stroke-width:3.00;stroke:rgb(255,0,0)"/>
<!-- Arc:     4    5 -->
<g transform="translate(517.79 543.13)">
<g transform="rotate(409.38)">
<path d="M 0 0 L -4.00 10.00 L 20.00 0 L -4.00 -10.00 z" style="fill:rgb(255,0,0)"/>
</g></g>
<line x1="392.66" y1="397.25" x2="517.79" y2="543.13" style="stroke-width:3.00;stroke:rgb(255,0,0)"/>
<!-- Arc:     5    1 -->
<g transform="translate(326.27 572.82)">
<g transform="rotate(525.00)">
<path d="M 0 0 L -12.00 30.00 L 60.00 0 L -12.00 -30.00 z" style="fill:rgb(255,0,0)"/>
</g></g>
<path d="M 557.19 588.67 C 529.82 579.29 354.67 567.26 326.27 572.82" style="stroke-width:9.00;stroke:rgb(255,0,0);fill:none"/> 
<!-- Arc:     6    3 -->
<g transform="translate(312.60 152.61)">
<g transform="rotate(417.54)">
<path d="M 0 0 L -16.00 40.00 L 80.00 0 L -16.00 -40.00 z" style="fill:rgb(255,0,0)"/>
</g></g>
<line x1="273.33" y1="90.87" x2="312.60" y2="152.61" style="stroke-width:12.00;stroke:rgb(255,0,0)"/>
<!-- Edge:     1    5 -->
<path d="M 228.14 588.67 C 267.87 599.32 517.46 599.32 557.19 588.67" style="stroke-width:3.00;stroke:rgb(0,112,145);fill:none"/> 
<!-- Edge:     3    4 -->
<line x1="382.87" y1="263.84" x2="392.66" y2="397.25" style="stroke-width:3.00;stroke:rgb(0,112,145)"/>
<!-- Edge:     3    3 -->
<path d="M 382.87 263.84 C 408.52 193.36 357.21 193.36 382.87 263.84" style="stroke-width:3.00;stroke:rgb(0,112,145);fill:none"/> 

<!-- Vertex:     1 -->
<ellipse cx="228.14" cy="588.67" rx="38.97" ry="38.97" style="fill:rgb(255,99,33);stroke:rgb(0,0,0);stroke-width:0.50;"/>
<text x="228.14" y="602.01" style="font-family:Arial Unicode MS;font-weight: bold;font-size:40px;fill:rgb(96,109,196);text-anchor:middle;">a</text>
<!-- Vertex:     2 -->
<ellipse cx="526.48" cy="95.71" rx="31.82" ry="31.82" style="fill:rgb(255,255,0);stroke:rgb(0,0,0);stroke-width:0.50;"/>
<text x="526.48" y="109.05" style="font-family:Arial Unicode MS;font-weight: bold;font-size:40px;fill:rgb(96,109,196);text-anchor:middle;">f</text>
<!-- Vertex:     3 -->
<ellipse cx="382.87" cy="263.84" rx="50.31" ry="50.31" style="fill:rgb(0,0,255);stroke:rgb(0,0,0);stroke-width:0.50;"/>
<text x="382.87" y="277.17" style="font-family:Arial Unicode MS;font-weight: bold;font-size:40px;fill:rgb(96,109,196);text-anchor:middle;">c</text>
<!-- Vertex:     4 -->
<ellipse cx="392.66" cy="397.25" rx="38.97" ry="38.97" style="fill:rgb(255,99,33);stroke:rgb(0,0,0);stroke-width:0.50;"/>
<text x="392.66" y="410.58" style="font-family:Arial Unicode MS;font-weight: bold;font-size:40px;fill:rgb(96,109,196);text-anchor:middle;">b</text>
<!-- Vertex:     5 -->
<ellipse cx="557.19" cy="588.67" rx="38.97" ry="38.97" style="fill:rgb(255,99,33);stroke:rgb(0,0,0);stroke-width:0.50;"/>
<text x="557.19" y="602.01" style="font-family:Arial Unicode MS;font-weight: bold;font-size:40px;fill:rgb(96,109,196);text-anchor:middle;">d</text>
<!-- Vertex:     6 -->
<ellipse cx="273.33" cy="90.87" rx="31.82" ry="31.82" style="fill:rgb(255,255,0);stroke:rgb(0,0,0);stroke-width:0.50;"/>
<text x="273.33" y="104.20" style="font-family:Arial Unicode MS;font-weight: bold;font-size:40px;fill:rgb(96,109,196);text-anchor:middle;">e</text>
</g>         <!-- Layer Network -->
</svg>
