<?xml version="1.0" encoding="UTF-8" standalone="no"?>
<!-- Created with Inkscape (http://www.inkscape.org/) -->

<svg
   xmlns:dc="http://purl.org/dc/elements/1.1/"
   xmlns:cc="http://creativecommons.org/ns#"
   xmlns:rdf="http://www.w3.org/1999/02/22-rdf-syntax-ns#"
   xmlns:svg="http://www.w3.org/2000/svg"
   xmlns="http://www.w3.org/2000/svg"
   xmlns:sodipodi="http://sodipodi.sourceforge.net/DTD/sodipodi-0.dtd"
   xmlns:inkscape="http://www.inkscape.org/namespaces/inkscape"
   width="646.37183"
   height="660.80023"
   id="svg2"
   version="1.1"
   inkscape:version="0.48.4 r9939"
   sodipodi:docname="ex1ink.svg">
  <defs
     id="defs4">















 




 



 






















</defs>
  <sodipodi:namedview
     id="base"
     pagecolor="#ffffff"
     bordercolor="#666666"
     borderopacity="1.0"
     inkscape:pageopacity="0.0"
     inkscape:pageshadow="2"
     inkscape:zoom="0.7"
     inkscape:cx="416.75458"
     inkscape:cy="338.1272"
     inkscape:document-units="px"
     inkscape:current-layer="layer1"
     showgrid="false"
     inkscape:window-width="1366"
     inkscape:window-height="706"
     inkscape:window-x="-8"
     inkscape:window-y="-8"
     inkscape:window-maximized="1"
     fit-margin-top="20"
     fit-margin-left="20"
     fit-margin-right="20"
     fit-margin-bottom="20"
     showborder="true" />
  <metadata
     id="metadata7">
    <rdf:RDF>
      <cc:Work
         rdf:about="">
        <dc:format>image/svg+xml</dc:format>
        <dc:type
           rdf:resource="http://purl.org/dc/dcmitype/StillImage" />
        <dc:title></dc:title>
      </cc:Work>
    </rdf:RDF>
  </metadata>
  <g
     inkscape:label="Layer 1"
     inkscape:groupmode="layer"
     id="layer1"
     transform="translate(25.106468,-173.69978)">
    <g
       id="g4046">
      <path
         sodipodi:nodetypes="csssscc"
         inkscape:connector-curvature="0"
         id="path3166"
         d="m 101.42857,606.6479 c -30.942594,48.48422 -151.600464,61.03246 -88.571427,161.42857 41.468809,66.0538 157.749587,39.20974 235.714287,37.14286 98.73897,-2.61762 207.19621,43.5401 242.85714,-48.57143 C 512.98752,700.96153 443.42501,646.20747 400,605.21933 341.40775,549.91509 311.68446,451.18346 224.28571,456.6479 c -97.36396,10.5383 -91.63024,100.08088 -122.85714,150 z"
         style="fill:#d4ff2a;stroke:none" />
      <g
         transform="translate(204.72507,577.67728)"
         id="g3019">
<g
   transform="matrix(0.65103921,-0.7590441,0.7590441,0.65103921,0,0)"
   id="g3021">
<path
   inkscape:connector-curvature="0"
   d="M 0,0 -4,10 20,0 -4,-10 z"
   style="fill:#ff0000"
   id="path3023" />

</g>
</g>
      <line
         x1="79.605072"
         y1="723.55725"
         x2="204.72508"
         y2="577.67731"
         style="stroke:#ff0000;stroke-width:3"
         id="line3025" />
      <g
         transform="translate(177.85507,226.71728)"
         id="g3027">
<g
   transform="matrix(-0.99981235,-0.01937194,0.01937194,-0.99981235,0,0)"
   id="g3029">
<path
   inkscape:connector-curvature="0"
   d="M 0,0 -4,10 20,0 -4,-10 z"
   style="fill:#ff0000"
   id="path3031" />

</g>
</g>
      <line
         x1="377.94504"
         y1="230.59727"
         x2="177.85509"
         y2="226.71729"
         style="stroke:#ff0000;stroke-width:3"
         id="line3033" />
      <g
         transform="translate(343.28507,270.79728)"
         id="g3035">
<g
   transform="matrix(0.64838569,-0.76131202,0.76131202,0.64838569,0,0)"
   id="g3037">
<path
   inkscape:connector-curvature="0"
   d="M 0,0 -4,10 20,0 -4,-10 z"
   style="fill:#ff0000"
   id="path3039" />

</g>
</g>
      <line
         x1="234.33507"
         y1="398.72726"
         x2="343.28506"
         y2="270.79727"
         style="stroke:#ff0000;stroke-width:3"
         id="line3041" />
      <g
         transform="translate(369.25507,678.01728)"
         id="g3043">
<g
   transform="matrix(0.65103921,0.7590441,-0.7590441,0.65103921,0,0)"
   id="g3045">
<path
   inkscape:connector-curvature="0"
   d="M 0,0 -4,10 20,0 -4,-10 z"
   style="fill:#ff0000"
   id="path3047" />

</g>
</g>
      <line
         x1="244.12508"
         y1="532.13727"
         x2="369.25504"
         y2="678.01727"
         style="stroke:#ff0000;stroke-width:3"
         id="line3049" />
      <g
         transform="translate(177.73507,707.70728)"
         id="g3051">
<g
   transform="matrix(-0.96592583,0.25881905,-0.25881905,-0.96592583,0,0)"
   id="g3053">
<path
   inkscape:connector-curvature="0"
   d="M 0,0 -12,30 60,0 -12,-30 z"
   style="fill:#ff0000"
   id="path3055" />

</g>
</g>
      <path
         inkscape:connector-curvature="0"
         d="m 408.65507,723.55728 c -27.37,-9.38 -202.52,-21.41 -230.92,-15.85"
         style="fill:none;stroke:#ff0000;stroke-width:9"
         id="path3057" />
      <g
         transform="translate(164.06507,287.49728)"
         id="g3059">
<g
   transform="matrix(0.53671068,0.84376635,-0.84376635,0.53671068,0,0)"
   id="g3061">
<path
   inkscape:connector-curvature="0"
   d="M 0,0 -16,40 80,0 -16,-40 z"
   style="fill:#ff0000"
   id="path3063" />

</g>
</g>
      <line
         x1="124.79506"
         y1="225.75728"
         x2="164.06508"
         y2="287.49728"
         style="stroke:#ff0000;stroke-width:12"
         id="line3065" />
      <path
         sodipodi:nodetypes="cc"
         inkscape:connector-curvature="0"
         d="m 82.462212,736.41442 c 35.444288,40.65 292.177138,34.93571 329.049998,0"
         style="fill:none;stroke:#007091;stroke-width:3"
         id="path3067" />
      <line
         x1="234.33507"
         y1="398.72726"
         x2="244.12508"
         y2="532.13727"
         style="stroke:#007091;stroke-width:3"
         id="line3069" />
      <path
         sodipodi:nodetypes="cc"
         inkscape:connector-curvature="0"
         d="m 241.47792,395.87014 c 242.08564,7.03039 148.62571,186.28597 0,0"
         style="fill:none;stroke:#007091;stroke-width:3"
         id="path3071" />
      <ellipse
         transform="translate(-148.53493,134.88728)"
         d="m 267.11,588.66998 c 0,21.52254 -17.44746,38.97 -38.97,38.97 -21.52254,0 -38.97,-17.44746 -38.97,-38.97 0,-21.52253 17.44746,-38.97 38.97,-38.97 21.52254,0 38.97,17.44747 38.97,38.97 z"
         sodipodi:ry="38.970001"
         sodipodi:rx="38.970001"
         sodipodi:cy="588.66998"
         sodipodi:cx="228.14"
         cx="228.14"
         cy="588.66998"
         rx="38.970001"
         ry="38.970001"
         style="fill:#ff6321;stroke:#000000;stroke-width:0.5"
         id="ellipse3073" />
      <text
         x="79.605072"
         y="736.89728"
         style="font-size:40px;font-weight:bold;text-anchor:middle;fill:#606dc4;font-family:Arial Unicode MS"
         id="text3075">a</text>
      <ellipse
         transform="translate(-148.53493,134.88728)"
         d="m 558.29998,95.709999 c 0,17.573701 -14.2463,31.820001 -31.82,31.820001 -17.5737,0 -31.82,-14.2463 -31.82,-31.820001 0,-17.5737 14.2463,-31.82 31.82,-31.82 17.5737,0 31.82,14.2463 31.82,31.82 z"
         sodipodi:ry="31.82"
         sodipodi:rx="31.82"
         sodipodi:cy="95.709999"
         sodipodi:cx="526.47998"
         cx="526.47998"
         cy="95.709999"
         rx="31.82"
         ry="31.82"
         style="fill:#ffff00;stroke:#000000;stroke-width:0.5"
         id="ellipse3077" />
      <text
         sodipodi:linespacing="125%"
         x="377.94504"
         y="243.93729"
         style="font-size:40px;font-style:normal;font-variant:normal;font-weight:bold;font-stretch:normal;text-align:center;line-height:125%;writing-mode:lr-tb;text-anchor:middle;fill:#606dc4;font-family:Arial Unicode MS;-inkscape-font-specification:Arial Unicode MS Bold"
         id="text3079">
        <tspan
           y="243.93729"
           x="377.94504"
           id="tspan3276"
           sodipodi:role="line">HSE</tspan>
      </text>
      <ellipse
         transform="translate(-149.9635,133.4587)"
         d="m 433.18,263.84 c 0,27.78544 -22.52456,50.31 -50.31,50.31 -27.78545,0 -50.31001,-22.52456 -50.31001,-50.31 0,-27.78545 22.52456,-50.31001 50.31001,-50.31001 27.78544,0 50.31,22.52456 50.31,50.31001 z"
         sodipodi:ry="50.310001"
         sodipodi:rx="50.310001"
         sodipodi:cy="263.84"
         sodipodi:cx="382.87"
         cx="382.87"
         cy="263.84"
         rx="50.310001"
         ry="50.310001"
         style="fill:#0000ff;stroke:#000000;stroke-width:0.5"
         id="ellipse3081" />
      <text
         x="234.33507"
         y="412.05728"
         style="font-size:40px;font-weight:bold;text-anchor:middle;fill:#606dc4;font-family:Arial Unicode MS"
         id="text3083">c</text>
      <ellipse
         transform="translate(-148.53493,134.88728)"
         d="m 431.63,397.25 c 0,21.52254 -17.44746,38.97 -38.97,38.97 -21.52253,0 -38.97,-17.44746 -38.97,-38.97 0,-21.52254 17.44747,-38.97 38.97,-38.97 21.52254,0 38.97,17.44746 38.97,38.97 z"
         sodipodi:ry="38.970001"
         sodipodi:rx="38.970001"
         sodipodi:cy="397.25"
         sodipodi:cx="392.66"
         cx="392.66"
         cy="397.25"
         rx="38.970001"
         ry="38.970001"
         style="fill:#ff6321;stroke:#000000;stroke-width:0.5"
         id="ellipse3085" />
      <text
         x="244.12508"
         y="545.46729"
         style="font-size:40px;font-weight:bold;text-anchor:middle;fill:#606dc4;font-family:Arial Unicode MS"
         id="text3087">b</text>
      <ellipse
         transform="translate(-148.53493,134.88728)"
         d="m 596.16,588.66998 c 0,21.52254 -17.44746,38.97 -38.97,38.97 -21.52253,0 -38.97,-17.44746 -38.97,-38.97 0,-21.52253 17.44747,-38.97 38.97,-38.97 21.52254,0 38.97,17.44747 38.97,38.97 z"
         sodipodi:ry="38.970001"
         sodipodi:rx="38.970001"
         sodipodi:cy="588.66998"
         sodipodi:cx="557.19"
         cx="557.19"
         cy="588.66998"
         rx="38.970001"
         ry="38.970001"
         style="fill:#ff6321;stroke:#000000;stroke-width:0.5"
         id="ellipse3089" />
      <text
         x="408.65506"
         y="736.89728"
         style="font-size:40px;font-weight:bold;text-anchor:middle;fill:#606dc4;font-family:Arial Unicode MS"
         id="text3091">d</text>
      <ellipse
         transform="translate(-148.53493,134.88728)"
         d="m 305.14999,90.870003 c 0,17.573697 -14.2463,31.819997 -31.82,31.819997 -17.5737,0 -31.82,-14.2463 -31.82,-31.819997 0,-17.573701 14.2463,-31.82 31.82,-31.82 17.5737,0 31.82,14.246299 31.82,31.82 z"
         sodipodi:ry="31.82"
         sodipodi:rx="31.82"
         sodipodi:cy="90.870003"
         sodipodi:cx="273.32999"
         cx="273.32999"
         cy="90.870003"
         rx="31.82"
         ry="31.82"
         style="fill:#ffff00;stroke:#000000;stroke-width:0.5"
         id="ellipse3093" />
      <text
         x="124.79506"
         y="239.08728"
         style="font-size:40px;font-weight:bold;text-anchor:middle;fill:#606dc4;font-family:Arial Unicode MS"
         id="text3095">e</text>
      <text
         sodipodi:linespacing="125%"
         id="text3160"
         y="332.36218"
         x="382.85715"
         style="font-size:28px;font-style:normal;font-variant:normal;font-weight:normal;font-stretch:normal;line-height:125%;letter-spacing:0px;word-spacing:0px;fill:#000000;fill-opacity:1;stroke:none;font-family:Arial Unicode MS;-inkscape-font-specification:Arial Unicode MS"
         xml:space="preserve"><tspan
           y="332.36218"
           x="382.85715"
           id="tspan3162"
           sodipodi:role="line">This is the picture</tspan><tspan
           id="tspan3164"
           y="367.36218"
           x="382.85715"
           sodipodi:role="line">HSE example 1</tspan></text>
    </g>
  </g>
</svg>
